<svg width="60" height="69" viewBox="0 0 60 69" fill="none" xmlns="http://www.w3.org/2000/svg">
<path d="M15.5308 8.84148C12.9494 6.5379 7.93348 7.59569 4.36147 11.2186C0.789448 14.8416 -0.028676 19.6501 2.56914 21.9511C5.15057 24.2546 10.1647 23.1813 13.7385 19.5739C17.3105 15.951 18.1286 11.1424 15.5308 8.84148Z" fill="url(#paint0_linear_406_549)"/>
<path d="M57.796 49.0444C57.7924 49.0132 57.7742 49.0002 57.7707 48.9691C57.7382 48.8314 57.691 48.7119 57.6421 48.5769C57.6185 48.5171 57.6096 48.4392 57.5678 48.3665C57.566 48.3509 57.5478 48.338 57.546 48.3224C57.5207 48.247 57.4789 48.1744 57.4371 48.1017C57.3935 48.0134 57.3663 47.9225 57.3063 47.8369C57.2863 47.8083 57.268 47.7954 57.2645 47.7642C57.2244 47.7071 57.1844 47.65 57.1444 47.5929C57.1026 47.5203 57.0626 47.4632 57.0208 47.3905C56.9825 47.349 56.9443 47.3075 56.9225 47.2634C56.8825 47.2063 56.8442 47.1648 56.7877 47.1103C56.7495 47.0689 56.7277 47.0247 56.6912 46.9988C56.5965 46.9029 56.5018 46.8069 56.4088 46.7266L15.5998 9.91576C15.731 10.0376 15.8639 10.175 15.9804 10.3151C16.0205 10.3722 16.0752 10.4111 16.1152 10.4681C16.1935 10.5667 16.2735 10.6809 16.3353 10.7821C16.3754 10.8392 16.4154 10.8963 16.4554 10.9534C16.5172 11.0546 16.5808 11.1714 16.628 11.2909C16.6698 11.3635 16.6951 11.4388 16.7369 11.5115C16.7641 11.6024 16.7895 11.6778 16.833 11.766C16.882 11.9011 16.9291 12.0205 16.9616 12.1582C16.9852 12.2179 16.9941 12.2959 17.003 12.3739C17.0462 12.6051 17.0875 12.8207 17.1143 13.0546C17.1232 13.1326 17.1321 13.2105 17.1392 13.2729C17.1441 13.4627 17.149 13.6524 17.1393 13.8604C17.13 13.9254 17.1371 13.9878 17.1277 14.0528C17.1069 14.3102 17.0878 14.5832 17.0341 14.8458C17.0247 14.9109 16.999 14.9785 16.9896 15.0435C16.947 15.2568 16.9043 15.47 16.8435 15.6703C16.8212 15.7692 16.7826 15.8707 16.7604 15.9695C16.6977 16.1542 16.635 16.3389 16.5706 16.5081C16.5319 16.6095 16.4915 16.6954 16.4528 16.7969C16.335 17.0857 16.2008 17.3772 16.0501 17.6713C16.0372 17.7052 16.0244 17.739 15.995 17.7754C15.8572 18.0357 15.703 18.2987 15.547 18.546C15.3892 18.7778 15.2331 19.0251 15.0589 19.2595C15.0149 19.3142 14.9709 19.3689 14.9433 19.421C14.8131 19.6007 14.681 19.7647 14.5326 19.9315C14.4739 20.0044 14.4152 20.0774 14.3547 20.1347C14.1916 20.3197 14.012 20.5073 13.8324 20.6949C13.6528 20.8825 13.455 21.0572 13.2736 21.2292C13.2131 21.2866 13.1691 21.3413 13.1069 21.383C12.8944 21.5759 12.6637 21.7558 12.4494 21.9332C12.4036 21.9723 12.356 21.9958 12.3102 22.0349C12.1253 22.1757 11.9403 22.3166 11.7372 22.4445C11.6127 22.528 11.4718 22.6141 11.3455 22.682C11.2192 22.7499 11.1112 22.8308 10.9849 22.8987C10.6866 23.0736 10.3847 23.2173 10.0829 23.3611C10.0188 23.3872 9.95481 23.4134 9.87433 23.4422C9.61825 23.5468 9.37863 23.6488 9.12076 23.7378C9.02384 23.7693 8.9269 23.8007 8.82998 23.8321C8.57211 23.9212 8.32891 23.992 8.06748 24.0498C8.00168 24.0604 7.93765 24.0866 7.8883 24.0945C7.57752 24.1603 7.2814 24.2078 6.98351 24.2397C6.90125 24.253 6.83368 24.2479 6.76788 24.2585C6.53579 24.2799 6.30191 24.2857 6.08449 24.2888C6.00045 24.2864 5.91643 24.284 5.83239 24.2817C5.58029 24.2745 5.3264 24.2517 5.08718 24.2108C5.0525 24.2005 5.0196 24.2057 4.98492 24.1954C4.71102 24.1441 4.45177 24.0746 4.20721 23.9869C4.13785 23.9662 4.06671 23.93 3.99735 23.9094C3.80392 23.8293 3.62695 23.7466 3.44819 23.6483C3.37705 23.612 3.3059 23.5758 3.2512 23.537C3.0342 23.3972 2.81541 23.2418 2.6113 23.0681L43.4204 59.8789C43.6245 60.0526 43.8433 60.208 44.0603 60.3478C44.1314 60.384 44.1861 60.4229 44.2572 60.4591C44.436 60.5574 44.613 60.6401 44.8046 60.7046C44.874 60.7253 44.9451 60.7615 45.0145 60.7821C45.2591 60.8699 45.5347 60.9367 45.7922 60.9907C45.8269 61.001 45.8598 60.9957 45.8945 61.006C46.1337 61.047 46.3876 61.0697 46.6397 61.0769C46.7237 61.0793 46.8078 61.0817 46.8918 61.0841C47.1092 61.0809 47.3431 61.0751 47.5752 61.0537C47.6574 61.0405 47.725 61.0456 47.8072 61.0324C48.1051 61.0004 48.4177 60.9502 48.712 60.8871C48.7778 60.8765 48.8419 60.8504 48.8912 60.8424C49.1362 60.7872 49.3959 60.7138 49.6537 60.6247C49.7506 60.5933 49.8476 60.5619 49.9445 60.5304C50.2025 60.4414 50.442 60.3394 50.6981 60.2348C50.7456 60.2113 50.795 60.2033 50.859 60.1772C50.8755 60.1745 50.8901 60.1563 50.9066 60.1537C51.2085 60.0099 51.5104 59.8662 51.8087 59.6913C51.8251 59.6886 51.8398 59.6704 51.8562 59.6677C51.9661 59.6025 52.0594 59.5399 52.1692 59.4746C52.2937 59.3911 52.4364 59.3205 52.5609 59.2371C52.5756 59.2188 52.592 59.2162 52.6067 59.1979C52.777 59.0753 52.9472 58.9527 53.1175 58.8301C53.1633 58.791 53.2109 58.7675 53.2567 58.7284L53.2731 58.7258C53.4727 58.5667 53.6723 58.4076 53.8702 58.2329C53.8848 58.2147 53.8995 58.1965 53.9306 58.1756C53.9911 58.1183 54.0533 58.0765 54.0973 58.0218C54.2036 57.9254 54.3098 57.8289 54.4161 57.7325C54.4912 57.6569 54.5828 57.5787 54.6579 57.5031C54.7642 57.4066 54.8522 57.2973 54.942 57.2035C55.0153 57.1123 55.0905 57.0367 55.1638 56.9455C55.2225 56.8726 55.283 56.8153 55.3416 56.7423C55.371 56.7059 55.4021 56.685 55.4314 56.6485C55.5506 56.5183 55.6515 56.375 55.7524 56.2318C55.7964 56.1771 55.8404 56.1224 55.8844 56.0677C55.8991 56.0495 55.8991 56.0495 55.9137 56.0312C56.0733 55.8151 56.2311 55.5833 56.3725 55.3542C56.545 55.1042 56.6828 54.8439 56.8205 54.5836L56.8352 54.5654C56.8481 54.5316 56.8628 54.5134 56.8757 54.4795C57.0263 54.1854 57.1606 53.8939 57.2948 53.6025C57.3059 53.553 57.3352 53.5166 57.3628 53.4645C57.3904 53.4125 57.4015 53.363 57.4126 53.3136C57.4752 53.1289 57.5379 52.9442 57.6006 52.7595C57.6228 52.6606 57.6614 52.5591 57.6837 52.4603C57.7428 52.2444 57.7872 52.0467 57.8298 51.8335C57.8392 51.7685 57.8649 51.7008 57.8743 51.6358C57.9262 51.3575 57.9471 51.1001 57.968 50.8427C57.9773 50.7777 57.9701 50.7154 57.9795 50.6503C57.991 50.458 57.9843 50.2526 57.9794 50.0629C57.9758 50.0317 57.9887 49.9979 57.9851 49.9667C57.9798 49.9199 57.9745 49.8731 57.9709 49.842C57.9442 49.6081 57.9175 49.3742 57.8596 49.1612C57.8049 49.1223 57.816 49.0729 57.796 49.0444Z" fill="url(#paint1_linear_406_549)"/>
<defs>
<linearGradient id="paint0_linear_406_549" x1="13.1112" y1="7.60366" x2="6.86604" y2="22.0792" gradientUnits="userSpaceOnUse">
<stop stop-color="#FDB5FF"/>
<stop offset="1" stop-color="#FC89FF"/>
</linearGradient>
<linearGradient id="paint1_linear_406_549" x1="23.7464" y1="44.9462" x2="37.5371" y2="29.9796" gradientUnits="userSpaceOnUse">
<stop offset="0.0566" stop-color="#CF8EFE"/>
<stop offset="0.2101" stop-color="#AE6EFE"/>
<stop offset="0.3304" stop-color="#B76FFD"/>
<stop offset="0.5231" stop-color="#CE73F9"/>
<stop offset="0.6233" stop-color="#DD76F7"/>
<stop offset="0.714" stop-color="#E07FF7"/>
<stop offset="0.8647" stop-color="#EA99F8"/>
<stop offset="0.9249" stop-color="#EEA5F9"/>
<stop offset="0.9921" stop-color="#F6CDFC"/>
</linearGradient>
</defs>
</svg>
