<svg width="14" height="12" viewBox="0 0 14 12" fill="none" xmlns="http://www.w3.org/2000/svg">
<path d="M12.098 7.03584H7.44493V11.0394C7.44493 11.2518 7.34688 11.4554 7.17236 11.6056C6.99784 11.7558 6.76113 11.8401 6.51432 11.8401C6.2675 11.8401 6.03079 11.7558 5.85627 11.6056C5.68175 11.4554 5.5837 11.2518 5.5837 11.0394V7.03584H0.930616C0.683802 7.03584 0.447096 6.95148 0.272571 6.80132C0.098047 6.65115 0 6.44749 0 6.23513C0 6.02276 0.098047 5.8191 0.272571 5.66894C0.447096 5.51877 0.683802 5.43441 0.930616 5.43441H5.5837V1.43084C5.5837 1.21848 5.68175 1.01481 5.85627 0.864651C6.03079 0.714487 6.2675 0.630127 6.51432 0.630127C6.76113 0.630127 6.99784 0.714487 7.17236 0.864651C7.34688 1.01481 7.44493 1.21848 7.44493 1.43084V5.43441H12.098C12.3448 5.43441 12.5815 5.51877 12.7561 5.66894C12.9306 5.8191 13.0286 6.02276 13.0286 6.23513C13.0286 6.44749 12.9306 6.65115 12.7561 6.80132C12.5815 6.95148 12.3448 7.03584 12.098 7.03584Z" fill="#020D2B" fill-opacity="0.7"/>
</svg>
