<svg width="13" height="13" viewBox="0 0 13 13" fill="none" xmlns="http://www.w3.org/2000/svg">
<rect width="13" height="13" rx="6.5" fill="#FF5733"/>
<path d="M2.405 2.405C2.48036 2.32953 2.56986 2.26966 2.66838 2.22881C2.7669 2.18796 2.87251 2.16693 2.97917 2.16693C3.08582 2.16693 3.19143 2.18796 3.28995 2.22881C3.38847 2.26966 3.47797 2.32953 3.55333 2.405L6.5 5.35058L9.44667 2.405C9.52207 2.3296 9.61158 2.26979 9.7101 2.22898C9.80861 2.18817 9.9142 2.16717 10.0208 2.16717C10.1275 2.16717 10.2331 2.18817 10.3316 2.22898C10.4301 2.26979 10.5196 2.3296 10.595 2.405C10.6704 2.4804 10.7302 2.56991 10.771 2.66843C10.8118 2.76694 10.8328 2.87253 10.8328 2.97917C10.8328 3.0858 10.8118 3.19139 10.771 3.2899C10.7302 3.38842 10.6704 3.47793 10.595 3.55333L7.64942 6.5L10.595 9.44667C10.7473 9.59894 10.8328 9.80548 10.8328 10.0208C10.8328 10.2362 10.7473 10.4427 10.595 10.595C10.4427 10.7473 10.2362 10.8328 10.0208 10.8328C9.80548 10.8328 9.59894 10.7473 9.44667 10.595L6.5 7.64942L3.55333 10.595C3.40105 10.7473 3.19452 10.8328 2.97917 10.8328C2.76381 10.8328 2.55728 10.7473 2.405 10.595C2.25272 10.4427 2.16717 10.2362 2.16717 10.0208C2.16717 9.80548 2.25272 9.59894 2.405 9.44667L5.35058 6.5L2.405 3.55333C2.32953 3.47797 2.26966 3.38847 2.22881 3.28995C2.18796 3.19143 2.16693 3.08582 2.16693 2.97917C2.16693 2.87251 2.18796 2.7669 2.22881 2.66838C2.26966 2.56986 2.32953 2.48036 2.405 2.405Z" fill="white"/>
</svg>
