<svg width="75" height="133" viewBox="0 0 75 133" fill="none" xmlns="http://www.w3.org/2000/svg">
<path id="Union" fill-rule="evenodd" clip-rule="evenodd" d="M138 58.5C138 93.5701 109.57 122 74.5 122C39.4299 122 11 93.5701 11 58.5C11 23.4299 39.4299 -5 74.5 -5C109.57 -5 138 23.4299 138 58.5ZM149 58.5C149 99.6452 115.645 133 74.5 133C33.3548 133 0 99.6452 0 58.5C0 17.3548 33.3548 -16 74.5 -16C115.645 -16 149 17.3548 149 58.5ZM75 102C99.3005 102 119 82.3005 119 58C119 33.6995 99.3005 14 75 14C50.6995 14 31 33.6995 31 58C31 82.3005 50.6995 102 75 102ZM75 112C104.823 112 129 87.8234 129 58C129 28.1766 104.823 4 75 4C45.1766 4 21 28.1766 21 58C21 87.8234 45.1766 112 75 112ZM101 58C101 72.3594 89.3594 84 75 84C60.6406 84 49 72.3594 49 58C49 43.6406 60.6406 32 75 32C89.3594 32 101 43.6406 101 58ZM110 58C110 77.33 94.33 93 75 93C55.67 93 40 77.33 40 58C40 38.67 55.67 23 75 23C94.33 23 110 38.67 110 58ZM87 58C87 64.6274 81.6274 70 75 70C68.3726 70 63 64.6274 63 58C63 51.3726 68.3726 46 75 46C81.6274 46 87 51.3726 87 58ZM95 58C95 69.0457 86.0457 78 75 78C63.9543 78 55 69.0457 55 58C55 46.9543 63.9543 38 75 38C86.0457 38 95 46.9543 95 58Z" fill="#4E18CD"/>
</svg>
