<svg width="122" height="149" viewBox="0 0 122 149" fill="none" xmlns="http://www.w3.org/2000/svg">
<path id="Vector 18" d="M18 131V58.1967C18 57.1856 19.3289 56.8132 19.8544 57.677L46.8708 102.093C47.353 102.886 48.5611 102.651 48.7119 101.736L57.7053 47.1152C57.8378 46.311 58.825 45.9945 59.4004 46.5718L89.8741 77.1499C90.4715 77.7493 91.4969 77.382 91.5779 76.5396L95.7225 33.4109C95.8126 32.4731 97.0311 32.1689 97.5515 32.9543L115.196 59.584C115.744 60.41 117.03 60.0226 117.03 59.0317V20.0959C117.03 19.2119 118.093 18.7627 118.727 19.3788L153.031 52.7153C153.701 53.3658 154.817 52.8259 154.723 51.8973L149.869 4" stroke="#DEC8FE" stroke-width="36" stroke-linecap="round"/>
</svg>
