<svg width="82" height="110" viewBox="0 0 82 110" fill="none" xmlns="http://www.w3.org/2000/svg">
<g id="Info Background">
<circle id="Ellipse 202" cx="5" cy="5" r="5" fill="white"/>
<circle id="Ellipse 208" cx="23" cy="5" r="5" fill="white"/>
<circle id="Ellipse 214" cx="41" cy="5" r="5" fill="white"/>
<circle id="Ellipse 220" cx="59" cy="5" r="5" fill="white"/>
<circle id="Ellipse 226" cx="77" cy="5" r="5" fill="white"/>
<circle id="Ellipse 203" cx="5" cy="25" r="5" fill="white"/>
<circle id="Ellipse 209" cx="23" cy="25" r="5" fill="white"/>
<circle id="Ellipse 215" cx="41" cy="25" r="5" fill="white"/>
<circle id="Ellipse 221" cx="59" cy="25" r="5" fill="white"/>
<circle id="Ellipse 227" cx="77" cy="25" r="5" fill="white"/>
<circle id="Ellipse 204" cx="5" cy="45" r="5" fill="white"/>
<circle id="Ellipse 210" cx="23" cy="45" r="5" fill="white"/>
<circle id="Ellipse 216" cx="41" cy="45" r="5" fill="white"/>
<circle id="Ellipse 222" cx="59" cy="45" r="5" fill="white"/>
<circle id="Ellipse 228" cx="77" cy="45" r="5" fill="white"/>
<circle id="Ellipse 205" cx="5" cy="65" r="5" fill="white"/>
<circle id="Ellipse 211" cx="23" cy="65" r="5" fill="white"/>
<circle id="Ellipse 217" cx="41" cy="65" r="5" fill="white"/>
<circle id="Ellipse 223" cx="59" cy="65" r="5" fill="white"/>
<circle id="Ellipse 229" cx="77" cy="65" r="5" fill="white"/>
<circle id="Ellipse 206" cx="5" cy="85" r="5" fill="white"/>
<circle id="Ellipse 212" cx="23" cy="85" r="5" fill="white"/>
<circle id="Ellipse 218" cx="41" cy="85" r="5" fill="white"/>
<circle id="Ellipse 224" cx="59" cy="85" r="5" fill="white"/>
<circle id="Ellipse 230" cx="77" cy="85" r="5" fill="white"/>
<circle id="Ellipse 207" cx="5" cy="105" r="5" fill="white"/>
<circle id="Ellipse 213" cx="23" cy="105" r="5" fill="white"/>
<circle id="Ellipse 219" cx="41" cy="105" r="5" fill="white"/>
<circle id="Ellipse 225" cx="59" cy="105" r="5" fill="white"/>
<circle id="Ellipse 231" cx="77" cy="105" r="5" fill="white"/>
</g>
</svg>
