<svg width="56" height="56" viewBox="0 0 56 56" fill="none" xmlns="http://www.w3.org/2000/svg">
<g id="Featured icon">
<rect x="4" y="4" width="48" height="48" rx="24" fill="#F4EBFF"/>
<rect x="4" y="4" width="48" height="48" rx="24" stroke="#F9F5FF" stroke-width="8"/>
<path id="Vector" d="M26.4089 23.5516C26.3538 23.3865 26.3666 23.2063 26.4443 23.0507C26.522 22.895 26.6584 22.7765 26.8234 22.7214L28.1359 22.2839C28.2346 22.251 28.3396 22.242 28.4425 22.2576C28.5453 22.2732 28.6429 22.3131 28.7273 22.3739C28.8117 22.4347 28.8804 22.5146 28.9278 22.6072C28.9752 22.6997 29 22.8023 29 22.9062V27.2812C29 27.4553 28.9309 27.6222 28.8078 27.7453C28.6847 27.8684 28.5178 27.9375 28.3438 27.9375C28.1697 27.9375 28.0028 27.8684 27.8797 27.7453C27.7566 27.6222 27.6875 27.4553 27.6875 27.2812V23.8162L27.2391 23.9661C27.074 24.0212 26.8938 24.0084 26.7382 23.9307C26.5825 23.853 26.4641 23.7166 26.4089 23.5516ZM40.8125 35.1562C40.8125 35.3303 40.7434 35.4972 40.6203 35.6203C40.4972 35.7434 40.3303 35.8125 40.1562 35.8125H15.6562C15.4822 35.8125 15.3153 35.7434 15.1922 35.6203C15.0691 35.4972 15 35.3303 15 35.1562C15 34.9822 15.0691 34.8153 15.1922 34.6922C15.3153 34.5691 15.4822 34.5 15.6562 34.5H16.75V23.7812C16.75 23.3751 16.9113 22.9857 17.1985 22.6985C17.4857 22.4113 17.8751 22.25 18.2812 22.25H22.875V18.5312C22.875 18.1251 23.0363 17.7357 23.3235 17.4485C23.6107 17.1613 24.0001 17 24.4062 17H31.4062C31.8124 17 32.2018 17.1613 32.489 17.4485C32.7762 17.7357 32.9375 18.1251 32.9375 18.5312V26.625H37.5312C37.9374 26.625 38.3268 26.7863 38.614 27.0735C38.9012 27.3607 39.0625 27.7501 39.0625 28.1562V34.5H40.1562C40.3303 34.5 40.4972 34.5691 40.6203 34.6922C40.7434 34.8153 40.8125 34.9822 40.8125 35.1562ZM32.9375 27.9375V34.5H37.75V28.1562C37.75 28.0982 37.727 28.0426 37.6859 28.0016C37.6449 27.9605 37.5893 27.9375 37.5312 27.9375H32.9375ZM24.1875 34.5H31.625V18.5312C31.625 18.4732 31.602 18.4176 31.5609 18.3766C31.5199 18.3355 31.4643 18.3125 31.4062 18.3125H24.4062C24.3482 18.3125 24.2926 18.3355 24.2516 18.3766C24.2105 18.4176 24.1875 18.4732 24.1875 18.5312V34.5ZM18.0625 34.5H22.875V23.5625H18.2812C18.2232 23.5625 18.1676 23.5855 18.1266 23.6266C18.0855 23.6676 18.0625 23.7232 18.0625 23.7812V34.5Z" fill="#7F56D9"/>
</g>
</svg>
