<svg width="30" height="30" viewBox="0 0 30 30" fill="none" xmlns="http://www.w3.org/2000/svg">
<path id="Vector" d="M4.10919 0L0 10.2713V18.1614H11.704V10.7623H5.85202C4.25448 10.7623 3.09417 9.21525 3.09417 7.46637C3.09417 5.71749 4.25448 4.1704 5.85202 4.1704H9.26233L7.59417 0H4.10919ZM22.4058 0L18.296 10.2713V29.0583H30V10.2713L25.8901 0H22.4058ZM24.148 4.1704C25.7489 4.1704 26.9058 5.71749 26.9058 7.46637C26.9058 9.21525 25.7489 10.7623 24.148 10.7623C22.5471 10.7623 21.3901 9.21525 21.3901 7.46637C21.3901 5.71749 22.5471 4.1704 24.148 4.1704ZM5.85202 5.38117C5.07175 5.38117 4.30493 6.24215 4.30493 7.46637C4.30493 8.69058 5.07175 9.55157 5.85202 9.55157H17.2803L18.9484 5.38117H5.85202ZM24.148 5.38117C23.3677 5.38117 22.6009 6.24215 22.6009 7.46637C22.6009 8.69058 23.3677 9.55157 24.148 9.55157C24.9283 9.55157 25.6951 8.69058 25.6951 7.46637C25.6951 6.24215 24.9283 5.38117 24.148 5.38117ZM0 19.3722V29.0583H17.0852V19.3722H0Z" fill="#020D2B"/>
</svg>
