<svg width="30" height="31" viewBox="0 0 30 31" fill="none" xmlns="http://www.w3.org/2000/svg">
<path id="Vector" d="M1.87505 0.927243C1.87232 0.678603 1.77092 0.441233 1.59317 0.267352C1.41543 0.0934706 1.17588 -0.00267825 0.927242 5.67927e-05C0.678602 0.00279183 0.441233 0.104187 0.267352 0.281936C0.0934708 0.459685 -0.00267825 0.699227 5.67925e-05 0.947867V29.0728C5.67925e-05 29.3215 0.0988288 29.5599 0.274644 29.7357C0.450459 29.9115 0.688915 30.0103 0.937555 30.0103H29.0625C29.3111 30.0103 29.5496 29.9115 29.7254 29.7357C29.9012 29.5599 30 29.3215 30 29.0728C30 28.8242 29.9012 28.5857 29.7254 28.4099C29.5496 28.2341 29.3111 28.1353 29.0625 28.1353H1.87505V0.927243ZM26.25 26.2603V6.57286C26.2498 6.39645 26.1997 6.22369 26.1057 6.07444C26.0117 5.92518 25.8774 5.80549 25.7184 5.72911C25.5594 5.65274 25.382 5.62278 25.2068 5.64268C25.0315 5.66258 24.8654 5.73153 24.7275 5.84161L15.8494 12.9422L9.84004 9.5091C9.71259 9.43638 9.56984 9.3946 9.4233 9.38711C9.27675 9.37962 9.13049 9.40663 8.99629 9.46598L3.75005 11.7966V26.2603H26.25Z" fill="#020D2B"/>
</svg>
