<svg width="30" height="24" viewBox="0 0 30 24" fill="none" xmlns="http://www.w3.org/2000/svg">
<path id="Vector" d="M5.83333 12.5436H19.1667V10.8711H5.83333V12.5436ZM5.83333 7.52613H19.1667V5.85366H5.83333V7.52613ZM2.69333 23.4146C1.92556 23.4146 1.285 23.1571 0.771667 22.6419C0.258333 22.1268 0.00111111 21.4835 0 20.7119V2.70272C0 1.93226 0.257222 1.28948 0.771667 0.774355C1.28611 0.259233 1.92611 0.00111498 2.69167 0H27.3083C28.075 0 28.715 0.258118 29.2283 0.774355C29.7417 1.29059 29.9989 1.93338 30 2.70272V20.7136C30 21.4829 29.7428 22.1257 29.2283 22.6419C28.7139 23.1582 28.0739 23.4157 27.3083 23.4146H2.69333Z" fill="#020D2B"/>
</svg>
