<svg width="24" height="24" viewBox="0 0 24 24" fill="none" xmlns="http://www.w3.org/2000/svg">
<g id="mdi-light:gender-male">
<path id="Vector" d="M15.3333 2V3.33333H19.7333L14 9.06667C12.6667 8 11.0667 7.33333 9.33333 7.33333C5.33333 7.33333 2 10.6667 2 14.6667C2 18.6667 5.33333 22 9.33333 22C13.3333 22 16.6667 18.6667 16.6667 14.6667C16.6667 12.9333 16 11.3333 14.9333 10L20.6667 4.26667V8.66667H22V2H15.3333ZM9.33333 8.66667C10.6667 8.66667 12 9.2 13.0667 10C13.3333 10.2667 13.7333 10.5333 14 10.9333C14.8 12 15.3333 13.3333 15.3333 14.6667C15.3333 18 12.6667 20.6667 9.33333 20.6667C6 20.6667 3.33333 18 3.33333 14.6667C3.33333 11.3333 6 8.66667 9.33333 8.66667Z" fill="#7F56D9"/>
</g>
</svg>
