<svg width="24" height="24" viewBox="0 0 24 24" fill="none" xmlns="http://www.w3.org/2000/svg">
<g id="material-symbols-light:assignment-outline-rounded">
<rect width="24" height="24" rx="12" fill="#DCD1F5"/>
<path id="Vector" d="M8.00937 18C7.73187 18 7.49437 17.8944 7.29687 17.6833C7.09896 17.4727 7 17.2193 7 16.9233V8.41C7 8.114 7.09896 7.86067 7.29687 7.65C7.49437 7.43889 7.73187 7.33333 8.00937 7.33333H10.9469C10.8902 6.99333 10.9667 6.686 11.1762 6.41133C11.3858 6.13667 11.6625 5.99956 12.0063 6C12.35 6.00045 12.6267 6.13756 12.8363 6.41133C13.0454 6.686 13.1177 6.99333 13.0531 7.33333H15.9906C16.2681 7.33333 16.5056 7.43889 16.7031 7.65C16.901 7.86067 17 8.114 17 8.41V16.9233C17 17.2193 16.901 17.4727 16.7031 17.6833C16.5056 17.8944 16.2681 18 15.9906 18H8.00937ZM8.00937 17.3333H15.9906C16.0865 17.3333 16.1746 17.2907 16.255 17.2053C16.3354 17.12 16.3754 17.026 16.375 16.9233V8.41C16.375 8.30778 16.335 8.21378 16.255 8.128C16.175 8.04222 16.0869 7.99956 15.9906 8H8.00937C7.91354 8 7.82542 8.04267 7.745 8.128C7.66458 8.21333 7.62458 8.30733 7.625 8.41V16.9233C7.625 17.0256 7.665 17.1196 7.745 17.2053C7.825 17.2911 7.91312 17.3338 8.00937 17.3333ZM9.5 15.5133H12.625C12.7137 15.5133 12.7879 15.4811 12.8475 15.4167C12.9075 15.3527 12.9375 15.2736 12.9375 15.1793C12.9375 15.0847 12.9075 15.0056 12.8475 14.942C12.7875 14.8784 12.7133 14.8464 12.625 14.846H9.5C9.41125 14.846 9.33708 14.878 9.2775 14.942C9.21792 15.006 9.18792 15.0853 9.1875 15.18C9.18708 15.2747 9.21708 15.3538 9.2775 15.4173C9.33708 15.4809 9.41125 15.5127 9.5 15.5127M9.5 13H14.5C14.5887 13 14.6629 12.968 14.7225 12.904C14.7825 12.84 14.8125 12.7607 14.8125 12.666C14.8125 12.5713 14.7825 12.4922 14.7225 12.4287C14.6625 12.3651 14.5883 12.3333 14.5 12.3333H9.5C9.41125 12.3333 9.33708 12.3653 9.2775 12.4293C9.2175 12.4933 9.1875 12.5727 9.1875 12.6673C9.1875 12.762 9.2175 12.8411 9.2775 12.9047C9.3375 12.9682 9.41167 13 9.5 13ZM9.5 10.4867H14.5C14.5887 10.4867 14.6629 10.4549 14.7225 10.3913C14.7821 10.3278 14.8121 10.2484 14.8125 10.1533C14.8129 10.0582 14.7829 9.97911 14.7225 9.916C14.6621 9.85289 14.5879 9.82111 14.5 9.82067H9.5C9.41125 9.82067 9.33708 9.85267 9.2775 9.91667C9.2175 9.98067 9.1875 10.0598 9.1875 10.154C9.1875 10.2487 9.2175 10.328 9.2775 10.392C9.3375 10.456 9.41167 10.4876 9.5 10.4867ZM12 7.62733C12.1354 7.62733 12.2475 7.58022 12.3363 7.486C12.425 7.39178 12.4692 7.27222 12.4688 7.12733C12.4683 6.98245 12.424 6.86311 12.3356 6.76933C12.2473 6.67556 12.1354 6.62845 12 6.628C11.8646 6.62756 11.7527 6.67489 11.6644 6.77C11.576 6.86511 11.5317 6.98445 11.5312 7.128C11.5308 7.27156 11.5752 7.39111 11.6644 7.48667C11.7535 7.58222 11.8654 7.62867 12 7.62733Z" fill="black"/>
</g>
</svg>
