<svg width="20" height="20" viewBox="0 0 20 20" fill="none" xmlns="http://www.w3.org/2000/svg">
<g id="fluent:call-12-filled">
<path id="Vector" d="M9.94332 7.48335L8.56499 8.72001C8.74593 9.3441 9.00049 9.94443 9.32332 10.5083C9.65931 11.0684 10.0635 11.5845 10.5267 12.045L12.3117 11.495C13.3117 11.1867 14.4033 11.5033 15.0683 12.295L16.085 13.505C16.4966 13.9908 16.703 14.6177 16.6603 15.2529C16.6177 15.8882 16.3295 16.4819 15.8567 16.9083C14.1983 18.4217 11.645 18.9333 9.73332 17.4317C8.0532 16.1088 6.63162 14.4872 5.53998 12.6483C4.44595 10.8182 3.71379 8.79482 3.38332 6.68835C3.01665 4.31835 4.75165 2.42168 6.91499 1.77501C8.20499 1.38835 9.58165 2.05168 10.055 3.28835L10.6133 4.74668C10.98 5.70668 10.7167 6.79001 9.94332 7.48335Z" fill="#4E18CD"/>
</g>
</svg>
