<svg width="21" height="21" viewBox="0 0 21 21" fill="none" xmlns="http://www.w3.org/2000/svg">
<g id="system-uicons:paper-folded">
<rect width="21" height="21" rx="10.5" fill="#4E18CD" fill-opacity="0.2"/>
<g id="Group">
<path id="Vector" fill-rule="evenodd" clip-rule="evenodd" d="M15 14V8.75L11.25 5H7.5C7.10218 5 6.72064 5.15804 6.43934 5.43934C6.15804 5.72064 6 6.10218 6 6.5V14C6 14.3978 6.15804 14.7794 6.43934 15.0607C6.72064 15.342 7.10218 15.5 7.5 15.5H13.5C13.8978 15.5 14.2794 15.342 14.5607 15.0607C14.842 14.7794 15 14.3978 15 14Z" stroke="black" stroke-width="0.7" stroke-linecap="round" stroke-linejoin="round"/>
<path id="Vector_2" d="M11.25 5V7.25C11.25 7.64782 11.408 8.02936 11.6893 8.31066C11.9706 8.59196 12.3522 8.75 12.75 8.75H15" stroke="black" stroke-width="0.7" stroke-linecap="round" stroke-linejoin="round"/>
</g>
</g>
</svg>
