<svg width="33" height="34" viewBox="0 0 33 34" fill="none" xmlns="http://www.w3.org/2000/svg">
<g id="ri:instagram-fill">
<path id="Vector" d="M17.9135 3.25C19.4604 3.25412 20.2455 3.26238 20.9234 3.28162L21.1901 3.29125C21.4981 3.30225 21.802 3.316 22.1691 3.3325C23.6321 3.40125 24.6304 3.63225 25.5063 3.97188C26.4137 4.32113 27.1783 4.79412 27.9428 5.55725C28.6419 6.24461 29.1829 7.07606 29.5281 7.99375C29.8678 8.86962 30.0988 9.86787 30.1675 11.3322C30.184 11.698 30.1978 12.0019 30.2087 12.3112L30.217 12.578C30.2376 13.2545 30.2459 14.0396 30.2486 15.5865L30.25 16.6122V18.4135C30.2534 19.4164 30.2428 20.4194 30.2184 21.422L30.2101 21.6887C30.1991 21.9981 30.1854 22.302 30.1689 22.6677C30.1001 24.1321 29.8664 25.129 29.5281 26.0062C29.1839 26.9244 28.6428 27.7561 27.9428 28.4427C27.2552 29.1417 26.4238 29.6827 25.5063 30.0281C24.6304 30.3677 23.6321 30.5987 22.1691 30.6675C21.8429 30.6829 21.5165 30.6966 21.1901 30.7087L20.9234 30.717C20.2455 30.7362 19.4604 30.7459 17.9135 30.7486L16.8877 30.75H15.0879C14.0845 30.7535 13.0811 30.7429 12.078 30.7184L11.8112 30.7101C11.4848 30.6978 11.1585 30.6836 10.8322 30.6675C9.36925 30.5987 8.371 30.3677 7.49375 30.0281C6.57617 29.6835 5.74505 29.1424 5.05862 28.4427C4.35881 27.7556 3.81731 26.9241 3.47188 26.0062C3.13225 25.1304 2.90125 24.1321 2.8325 22.6677C2.81718 22.3415 2.80343 22.0151 2.79125 21.6887L2.78438 21.422C2.75904 20.4194 2.74758 19.4164 2.75 18.4135V15.5865C2.74616 14.5836 2.75625 13.5806 2.78025 12.578L2.78987 12.3112C2.80087 12.0019 2.81462 11.698 2.83112 11.3322C2.89987 9.86787 3.13087 8.871 3.4705 7.99375C3.81578 7.07512 4.35837 6.24341 5.06 5.55725C5.74625 4.85803 6.57682 4.31698 7.49375 3.97188C8.371 3.63225 9.36787 3.40125 10.8322 3.3325C11.198 3.316 11.5033 3.30225 11.8112 3.29125L12.078 3.283C13.0806 3.25857 14.0836 3.24803 15.0865 3.25137L17.9135 3.25ZM16.5 10.125C14.6766 10.125 12.928 10.8493 11.6386 12.1386C10.3493 13.428 9.625 15.1766 9.625 17C9.625 18.8234 10.3493 20.572 11.6386 21.8614C12.928 23.1507 14.6766 23.875 16.5 23.875C18.3234 23.875 20.072 23.1507 21.3614 21.8614C22.6507 20.572 23.375 18.8234 23.375 17C23.375 15.1766 22.6507 13.428 21.3614 12.1386C20.072 10.8493 18.3234 10.125 16.5 10.125ZM16.5 12.875C17.0417 12.8749 17.5781 12.9815 18.0786 13.1887C18.5791 13.396 19.0339 13.6997 19.417 14.0827C19.8001 14.4657 20.104 14.9204 20.3114 15.4208C20.5188 15.9212 20.6256 16.4576 20.6257 16.9993C20.6258 17.541 20.5192 18.0774 20.312 18.5779C20.1047 19.0784 19.801 19.5332 19.418 19.9163C19.035 20.2994 18.5803 20.6034 18.0799 20.8107C17.5795 21.0181 17.0431 21.1249 16.5014 21.125C15.4074 21.125 14.3581 20.6904 13.5846 19.9168C12.811 19.1432 12.3764 18.094 12.3764 17C12.3764 15.906 12.811 14.8568 13.5846 14.0832C14.3581 13.3096 15.4074 12.875 16.5014 12.875M23.7201 8.0625C23.2643 8.0625 22.8271 8.24358 22.5048 8.56591C22.1825 8.88824 22.0014 9.32541 22.0014 9.78125C22.0014 10.2371 22.1825 10.6743 22.5048 10.9966C22.8271 11.3189 23.2643 11.5 23.7201 11.5C24.176 11.5 24.6131 11.3189 24.9355 10.9966C25.2578 10.6743 25.4389 10.2371 25.4389 9.78125C25.4389 9.32541 25.2578 8.88824 24.9355 8.56591C24.6131 8.24358 24.176 8.0625 23.7201 8.0625Z" fill="#252525"/>
</g>
</svg>
