<svg width="22" height="22" viewBox="0 0 22 22" fill="none" xmlns="http://www.w3.org/2000/svg">
<g id="ion:location-sharp">
<path id="Vector" d="M11 1.375C7.20457 1.375 4.125 4.14691 4.125 7.5625C4.125 13.0625 11 20.625 11 20.625C11 20.625 17.875 13.0625 17.875 7.5625C17.875 4.14691 14.7954 1.375 11 1.375ZM11 11C10.4561 11 9.92442 10.8387 9.47218 10.5365C9.01995 10.2344 8.66747 9.80488 8.45933 9.30238C8.25119 8.79988 8.19673 8.24695 8.30284 7.7135C8.40895 7.18005 8.67086 6.69005 9.05546 6.30546C9.44005 5.92086 9.93005 5.65895 10.4635 5.55284C10.9969 5.44673 11.5499 5.50119 12.0524 5.70933C12.5549 5.91747 12.9844 6.26995 13.2865 6.72218C13.5887 7.17442 13.75 7.7061 13.75 8.25C13.7492 8.9791 13.4592 9.67811 12.9437 10.1937C12.4281 10.7092 11.7291 10.9992 11 11Z" fill="#4E18CD"/>
</g>
</svg>
