<svg width="20" height="20" viewBox="0 0 20 20" fill="none" xmlns="http://www.w3.org/2000/svg">
<g clip-path="url(#clip0_406_649)">
<path d="M17.5 6.66669C18.1631 6.66669 18.7989 6.40329 19.2678 5.93445C19.7366 5.46561 20 4.82973 20 4.16669C20 3.50365 19.7366 2.86776 19.2678 2.39892C18.7989 1.93008 18.1631 1.66669 17.5 1.66669C16.837 1.66669 16.2011 1.93008 15.7323 2.39892C15.2634 2.86776 15 3.50365 15 4.16669C15 4.82973 15.2634 5.46561 15.7323 5.93445C16.2011 6.40329 16.837 6.66669 17.5 6.66669ZM4.37502 3.33335H13.8434C13.6739 4.07487 13.7341 4.85042 14.016 5.55688C14.298 6.26335 14.7882 6.86726 15.4217 7.28835L10 10.1275L1.68002 5.76919C1.74481 5.12793 2.03616 4.5308 2.50173 4.08509C2.96729 3.63938 3.57655 3.37432 4.22002 3.33752L4.37502 3.33335ZM10.29 11.3867L16.9817 7.88085C17.432 7.94305 17.8899 7.92358 18.3334 7.82335V13.9584C18.3334 14.6501 18.0687 15.3157 17.5936 15.8185C17.1185 16.3214 16.469 16.6234 15.7784 16.6625L15.625 16.6667H4.37502C3.68324 16.6667 3.01766 16.4021 2.51483 15.927C2.01199 15.4519 1.71002 14.8024 1.67085 14.1117L1.66669 13.9584V7.17335L9.71002 11.3867C9.7995 11.4336 9.89901 11.458 10 11.458C10.101 11.458 10.2005 11.4336 10.29 11.3867Z" fill="#4E18CD"/>
</g>
<defs>
<clipPath id="clip0_406_649">
<rect width="20" height="20" fill="white"/>
</clipPath>
</defs>
</svg>
