<svg width="24" height="24" viewBox="0 0 24 24" fill="none" xmlns="http://www.w3.org/2000/svg">
<g id="solar:notes-broken">
<rect width="24" height="24" rx="12" fill="#DCD1F5"/>
<g id="Group">
<path id="Vector" d="M12.4905 10.4935L15.2035 11.2204M12.0541 12.1213L13.6819 12.5572M17.2846 11.9804C16.9447 13.247 16.7751 13.8806 16.3903 14.2912C16.0867 14.6154 15.6939 14.8423 15.2613 14.9433C15.2069 14.9562 15.1518 14.9658 15.0956 14.9725C14.5817 15.036 13.9543 14.868 12.8129 14.5625C11.5463 14.2226 10.9127 14.053 10.5021 13.6682C10.1778 13.3645 9.95087 12.9714 9.84997 12.5387C9.72191 11.9905 9.89154 11.3574 10.2314 10.0908L10.5218 9.00562L10.6588 8.49729C10.9144 7.56151 11.0863 7.04643 11.416 6.69425C11.7197 6.37026 12.1125 6.14353 12.545 6.04269C13.0932 5.91462 13.7268 6.08425 14.994 6.42408C16.26 6.76334 16.8936 6.93297 17.3042 7.31717C17.6286 7.62108 17.8555 8.01437 17.9563 8.4473C18.0468 8.83487 17.9884 9.26512 17.8266 9.93186" stroke="black" stroke-width="0.7" stroke-linecap="round"/>
<path id="Vector_2" d="M7.71437 14.2271C8.05363 15.4938 8.22382 16.1273 8.60858 16.5379C8.91219 16.8621 9.30507 17.0891 9.73759 17.1901C10.2858 17.3176 10.9194 17.1479 12.1866 16.8087C13.4526 16.4694 14.0862 16.2998 14.4968 15.915C14.773 15.6564 14.9793 15.3322 15.0967 14.9725M10.6599 8.49673C10.4622 8.54785 10.2448 8.60626 10.0055 8.67086C8.7389 9.01012 8.10531 9.17975 7.69471 9.56395C7.37032 9.86786 7.14338 10.2612 7.04258 10.6941C6.95215 11.0817 7.01056 11.5119 7.17233 12.1786" stroke="black" stroke-width="0.7" stroke-linecap="round" stroke-linejoin="round"/>
</g>
</g>
</svg>
