<svg width="158" height="30" viewBox="0 0 158 30" fill="none" xmlns="http://www.w3.org/2000/svg">
<g id="Group 1393">
<path id="Vector" d="M9.50583 30C11.2907 30 12.7376 28.5375 12.7376 26.7333C12.7376 24.9291 11.2907 23.4666 9.50583 23.4666C7.72096 23.4666 6.27405 24.9291 6.27405 26.7333C6.27405 28.5375 7.72096 30 9.50583 30Z" fill="#64AF4B"/>
<path id="Vector_2" d="M6.68396 6.18845L6.34802 8.73529C6.33254 8.85541 6.36204 8.97703 6.43072 9.0763C6.4994 9.17557 6.6023 9.2453 6.71924 9.27181L13.8614 10.895C13.9988 10.9278 14.1417 10.9296 14.2799 10.9003C14.4181 10.8709 14.5482 10.8112 14.6609 10.7252L20.5736 6.15619C20.6683 6.0837 20.7329 5.97821 20.7549 5.86022C20.777 5.74224 20.7548 5.62019 20.6928 5.51778L19.3759 3.32411C19.3149 3.22247 19.2192 3.14696 19.1068 3.11192C18.9944 3.07687 18.8732 3.08471 18.7662 3.13395L13.6481 5.48552C13.4163 5.59235 13.1654 5.65013 12.9107 5.65531L7.15093 5.77416C7.03726 5.77647 6.92806 5.81932 6.84261 5.89512C6.75717 5.97093 6.70097 6.07482 6.68396 6.18845Z" fill="#64AF4B"/>
<path id="Vector_3" d="M64.3045 2.83315V0.0689842C61.9529 -0.16872 59.2654 1.80593 59.1108 4.31371C58.8404 8.68577 58.832 13.0833 58.9429 17.4656C59.0285 20.9445 57.3572 23.5966 54.1657 24.3811C51.0465 25.1468 47.5712 22.8632 47.079 19.6881C46.8472 18.1923 46.9312 16.6047 46.4676 15.1938C45.0583 10.9066 42.2347 8.07283 37.7079 7.14918C34.9699 6.59058 32.3932 6.9794 30.003 8.35808C28.8507 9.02196 27.8462 9.94561 26.7275 10.7895C24.8513 8.73671 22.6156 7.4599 20.0322 7.0541L14.7763 11.1172C14.6633 11.2032 14.533 11.2631 14.3945 11.2924C14.256 11.3218 14.1128 11.3199 13.9751 11.2869L9.82452 10.3446C8.40847 11.7797 7.46921 13.6245 7.13697 15.6234C6.859 17.4249 6.7175 19.2452 6.71368 21.0685H12.1207C12.1392 20.2195 12.1728 19.3706 12.2332 18.5301C12.3458 16.9545 13.0429 15.0427 14.1397 13.99C17.3984 10.8591 22.6357 12.3549 23.7847 16.7847C24.381 19.0803 24.0467 21.6288 24.0803 24.0653C24.1307 27.5765 26.4605 30.1199 29.5394 29.8958C29.5394 26.1605 29.3966 22.4013 29.6099 18.6694C29.6922 17.2092 30.2684 15.5554 31.1553 14.4145C32.7796 12.3227 35.1748 11.8761 37.6373 12.7709C39.7941 13.557 41.2118 15.2923 41.3529 17.5471C41.6048 21.5422 42.7134 24.9448 45.9099 27.5646C49.4088 30.4408 54.8124 30.7023 58.4809 28.5392C62.3443 26.2521 64.318 22.7494 64.3096 18.1702C64.2995 13.0686 64.2978 7.95625 64.3045 2.83315Z" fill="#3D3759"/>
<path id="Vector_4" d="M47.4786 14.5255C47.4974 14.6122 47.54 14.6917 47.6016 14.755C47.6631 14.8184 47.741 14.8628 47.8264 14.8834C47.9118 14.904 48.0013 14.8998 48.0844 14.8713C48.1676 14.8428 48.2411 14.7913 48.2966 14.7225C50.5911 11.9074 53.5911 11.7665 57.0026 14.4287C57.0823 14.4909 57.1777 14.5292 57.2779 14.5394C57.3781 14.5496 57.4791 14.5312 57.5695 14.4863C57.6599 14.4414 57.7361 14.3718 57.7894 14.2854C57.8426 14.199 57.8709 14.0993 57.871 13.9975V8.22465C53.9791 6.26869 47.9606 6.84087 45.137 10.218C46.5715 11.4676 47.0771 12.6833 47.4786 14.5255Z" fill="#3D3759"/>
<path id="Vector_5" d="M0 5.60982L11.7009 0.300527C11.9532 0.186126 12.2257 0.124335 12.5022 0.118852L25.478 0L14.0189 4.92388C13.6426 5.08997 13.2384 5.18217 12.828 5.19554L1.65116 5.55379L0 5.60982Z" fill="#64AF4B"/>
<path id="Vector_6" d="M1.71997 5.53167C1.71997 5.53167 2.80843 5.43828 2.93945 6.02915C3.07046 6.62002 3.95904 10.5167 3.95904 10.5167C3.95904 10.5167 4.08502 10.7748 3.62309 11.4624C3.62309 11.4624 3.52567 11.7137 3.92712 11.8886C3.92712 11.8886 4.06318 12.1348 3.82802 12.7579C3.82802 12.7579 3.7138 14.9651 4.45623 14.6867C4.45623 14.6867 5.30785 14.1773 5.49262 14.5169C5.52789 14.4948 5.97974 14.4439 5.68747 13.668C5.68747 13.668 5.67739 13.0839 5.11132 12.4234C4.97953 12.2557 4.88197 12.0633 4.8243 11.8572C4.76664 11.6512 4.75001 11.4356 4.77538 11.223C4.77538 11.223 4.79218 10.7985 4.23955 10.644C4.23955 10.644 3.47528 7.67101 3.28379 5.84068C3.28379 5.84068 3.1998 5.2685 4.83417 5.41621L1.71997 5.53167Z" fill="#64AF4B"/>
<path id="Vector_7" d="M76.9367 20.2253V12.7546C76.9367 12.7546 76.4613 13.5407 73.8679 17.1097H73.5789C70.972 13.5272 70.4916 12.7699 70.4916 12.7546V20.2253H69.1663V10.5474H70.4479L73.7469 15.1928L77.0173 10.5474H78.2838V20.2253H76.9367Z" fill="#3D3759"/>
<path id="Vector_8" d="M86.5592 13.1485V20.0945H85.249V19.2779C84.9304 19.628 84.5425 19.9063 84.1104 20.0947C83.6783 20.2831 83.2117 20.3774 82.7412 20.3713C82.2691 20.376 81.8012 20.2811 81.3674 20.0929C80.9336 19.9046 80.5434 19.627 80.2216 19.2779C79.5416 18.565 79.1684 17.6091 79.1835 16.619C79.1742 16.1297 79.2612 15.6434 79.4394 15.1884C79.6176 14.7334 79.8835 14.3188 80.2216 13.9686C80.5435 13.6196 80.9338 13.3423 81.3676 13.1543C81.8014 12.9664 82.2692 12.8718 82.7412 12.8768C83.2107 12.8679 83.6769 12.9593 84.109 13.1451C84.5412 13.3309 84.9297 13.6069 85.249 13.955V13.4303L86.5592 13.1485ZM84.4999 18.4493C84.9544 17.9517 85.2017 17.2961 85.1902 16.619C85.2033 15.9445 84.9556 15.2916 84.4999 14.7988C84.2898 14.5607 84.0323 14.3701 83.7443 14.2396C83.4562 14.1091 83.1442 14.0417 82.8285 14.0417C82.5129 14.0417 82.2008 14.1091 81.9128 14.2396C81.6247 14.3701 81.3673 14.5607 81.1572 14.7988C80.701 15.2914 80.4527 15.9443 80.4652 16.619C80.453 17.2981 80.701 17.9557 81.1572 18.4544C81.3698 18.6883 81.6281 18.8751 81.9158 19.0028C82.2035 19.1306 82.5143 19.1966 82.8285 19.1966C83.1428 19.1966 83.4536 19.1306 83.7413 19.0028C84.029 18.8751 84.2873 18.6883 84.4999 18.4544V18.4493Z" fill="#3D3759"/>
<path id="Vector_9" d="M88.3751 20.2252V12.9887H89.6281V14.4438C89.8061 13.977 90.1209 13.5763 90.5303 13.2953C90.9398 13.0144 91.4244 12.8665 91.9193 12.8716C92.452 12.8517 92.977 13.0046 93.4176 13.308L92.7692 14.4727C92.427 14.2052 92.0058 14.0617 91.5733 14.0652C90.6225 14.0652 89.8935 15.0704 89.7726 15.6816C89.6854 16.206 89.6466 16.7375 89.6567 17.2691V20.2252H88.3751Z" fill="#3D3759"/>
<path id="Vector_10" d="M99.8997 19.4241C100.223 19.5726 100.51 19.7918 100.74 20.0659C100.921 20.2924 101.062 20.5485 101.158 20.8232C101.222 21.0264 101.265 21.2358 101.287 21.448L101.302 21.7111H99.3235C99.1555 21.2595 98.8918 20.9675 98.5609 20.8367C98.3284 20.737 98.0778 20.6872 97.8252 20.6907C97.6414 20.6959 97.4583 20.7158 97.2776 20.7501C96.9606 20.8043 96.6518 20.8997 96.3588 21.0337C95.9994 21.1933 95.7104 21.3393 95.4669 21.4701L95.1209 21.6738L94.1836 20.7569L95.3594 18.2814C95.2435 18.2373 95.1578 18.1931 95.0705 18.1643C94.9411 18.0913 94.8403 18.0335 94.7681 17.9945L94.6673 17.8926C94.136 17.3387 93.8411 16.5961 93.8459 15.8246C93.8395 15.4389 93.919 15.0567 94.0787 14.7063C94.2383 14.3559 94.4739 14.0464 94.7681 13.8007C95.3728 13.2625 96.2093 13.001 97.2457 13.001H101.23V14.1504C100.352 14.1504 99.8039 14.1352 99.5872 14.1216C99.8405 14.3166 100.046 14.5676 100.189 14.8555C100.331 15.1433 100.406 15.4603 100.409 15.7821C100.412 16.17 100.333 16.5541 100.176 16.9083C100.02 17.2625 99.7895 17.5785 99.5016 17.8349C98.8834 18.4013 98.0731 18.7054 97.239 18.6838C97.1684 18.6838 97.0811 18.6702 96.9803 18.6702H96.8795L96.174 19.8774L96.4193 19.7178C96.6531 19.5763 96.9052 19.4683 97.1684 19.3969C97.6059 19.267 98.0569 19.1889 98.5122 19.1643C98.9874 19.1546 99.4595 19.243 99.8997 19.4241ZM95.6869 14.6191C95.3919 14.9431 95.2276 15.3672 95.2267 15.8076C95.2267 16.8705 95.8751 17.424 97.1567 17.4681C98.3812 17.4681 99.0144 16.8993 99.043 15.7702C99.043 14.6768 98.4092 14.1233 97.1416 14.1097C96.4713 14.1097 95.996 14.2846 95.6869 14.6191Z" fill="#3D3759"/>
<path id="Vector_11" d="M102.406 10.5417C102.406 10.5417 104.494 10.4976 105.69 10.4976C106.814 10.4976 107.808 10.6572 108.545 10.9933C110.015 11.6487 110.994 13.0308 110.994 15.3026C110.994 17.2976 109.958 19.133 108.127 19.8309C107.538 20.0499 106.427 20.2248 105.304 20.2248H102.406V10.5417ZM105.46 18.9293C106.078 18.9293 107.173 18.8274 107.677 18.5795C108.888 18.0701 109.622 16.8612 109.622 15.3026C109.622 12.8712 108.139 11.7642 105.819 11.7642C105.215 11.7642 104.365 11.793 103.731 11.8083V18.9293H105.46Z" fill="#3D3759"/>
<path id="Vector_12" d="M119.035 13.1485V20.0945H117.723V19.2779C117.405 19.6279 117.017 19.9062 116.585 20.0946C116.154 20.2831 115.687 20.3773 115.217 20.3713C114.745 20.3755 114.277 20.2805 113.844 20.0923C113.41 19.9041 113.019 19.6267 112.697 19.2779C112.017 18.5652 111.643 17.6094 111.656 16.619C111.647 16.1299 111.734 15.6437 111.911 15.1888C112.089 14.7338 112.355 14.3191 112.692 13.9686C113.015 13.6199 113.405 13.3429 113.839 13.1549C114.272 12.967 114.74 12.8723 115.212 12.8768C115.681 12.8679 116.147 12.9593 116.579 13.1451C117.011 13.3309 117.399 13.6069 117.718 13.955V13.4303L119.035 13.1485ZM116.974 18.4493C117.429 17.9518 117.675 17.296 117.663 16.619C117.676 15.9442 117.427 15.291 116.971 14.7988C116.761 14.5607 116.503 14.3702 116.216 14.2397C115.928 14.1092 115.616 14.0418 115.3 14.0418C114.985 14.0418 114.673 14.1092 114.385 14.2397C114.097 14.3702 113.84 14.5607 113.63 14.7988C113.173 15.291 112.925 15.9442 112.938 16.619C112.925 17.2982 113.173 17.9562 113.63 18.4544C113.842 18.6883 114.1 18.875 114.388 19.0027C114.675 19.1305 114.986 19.1965 115.3 19.1965C115.614 19.1965 115.925 19.1305 116.212 19.0027C116.5 18.875 116.758 18.6883 116.971 18.4544L116.974 18.4493Z" fill="#3D3759"/>
<path id="Vector_13" d="M120.847 20.2252V12.9888H122.1V14.4439C122.278 13.9772 122.592 13.5766 123.002 13.2956C123.411 13.0146 123.895 12.8667 124.39 12.8716C124.922 12.8515 125.448 13.0044 125.888 13.308L125.24 14.4727C124.898 14.2053 124.477 14.0617 124.045 14.0652C123.095 14.0652 122.366 15.0704 122.245 15.6816C122.158 16.2061 122.119 16.7375 122.129 17.2692V20.2252H120.847Z" fill="#3D3759"/>
<path id="Vector_14" d="M126.537 18.4633C127.29 18.9369 128.158 19.1891 129.045 19.1917C130.068 19.1917 130.543 18.8521 130.543 18.1577C130.543 17.6772 130.169 17.5175 129.319 17.2119L128.425 16.891C127.374 16.4971 126.745 15.9436 126.745 14.8807C126.745 13.6141 127.639 12.8433 129.396 12.8433C130.142 12.8455 130.882 12.9835 131.58 13.2508V14.5615C130.915 14.2181 130.179 14.0383 129.433 14.0369C128.553 14.0369 128.064 14.3136 128.064 14.969C128.064 15.3765 128.294 15.5514 129.087 15.8417L129.908 16.1626C131.234 16.672 131.882 17.0948 131.882 18.2154C131.882 19.6722 130.758 20.3717 129.043 20.3717C128.18 20.3814 127.326 20.1866 126.551 19.8029L126.537 18.4633Z" fill="#3D3759"/>
<path id="Vector_15" d="M138.812 20.2257V16.1185C138.812 15.6092 138.753 15.0421 138.552 14.7076C138.278 14.2118 137.761 14.0284 137.126 14.0284C136.464 14.0284 135.643 14.4954 135.196 15.1643C134.975 15.5377 134.865 15.9673 134.878 16.4021V20.2325H133.597V9.48828H134.865V14.3086C135.312 13.5072 136.333 12.8518 137.5 12.8518C138.624 12.8518 139.373 13.2457 139.776 14.0166C140.022 14.4682 140.079 15.2255 140.079 15.7654V20.2206L138.812 20.2257Z" fill="#3D3759"/>
<path id="Vector_16" d="M149.198 13.1485V20.0945H147.888V19.2779C147.569 19.628 147.182 19.9063 146.749 20.0947C146.317 20.2831 145.851 20.3774 145.38 20.3713C144.908 20.376 144.44 20.2811 144.006 20.0929C143.573 19.9046 143.182 19.627 142.861 19.2779C142.181 18.565 141.807 17.6091 141.823 16.619C141.813 16.1297 141.9 15.6434 142.078 15.1884C142.257 14.7334 142.523 14.3188 142.861 13.9686C143.183 13.6196 143.573 13.3423 144.007 13.1543C144.44 12.9664 144.908 12.8718 145.38 12.8768C145.85 12.8679 146.316 12.9593 146.748 13.1451C147.18 13.3309 147.569 13.6069 147.888 13.955V13.4303L149.198 13.1485ZM147.139 18.4493C147.593 17.9517 147.841 17.2961 147.829 16.619C147.842 15.9445 147.595 15.2916 147.139 14.7988C146.929 14.5607 146.671 14.3701 146.383 14.2396C146.095 14.1091 145.783 14.0417 145.468 14.0417C145.152 14.0417 144.84 14.1091 144.552 14.2396C144.264 14.3701 144.006 14.5607 143.796 14.7988C143.34 15.2914 143.092 15.9443 143.104 16.619C143.092 17.2981 143.34 17.9557 143.796 18.4544C144.009 18.6883 144.267 18.8751 144.555 19.0028C144.843 19.1306 145.153 19.1966 145.468 19.1966C145.782 19.1966 146.093 19.1306 146.38 19.0028C146.668 18.8751 146.926 18.6883 147.139 18.4544V18.4493Z" fill="#3D3759"/>
<path id="Vector_17" d="M151.014 20.225V13.0175H152.267V14.313C152.685 13.5116 153.75 12.8562 154.946 12.8562C156.028 12.8562 156.794 13.2501 157.193 14.021C157.439 14.4726 157.496 15.2299 157.496 15.7698V20.225H156.229V16.1178C156.229 15.6085 156.17 15.055 155.969 14.7205C155.695 14.24 155.178 14.0413 154.543 14.0413C154.163 14.0456 153.789 14.1416 153.454 14.3215C153.118 14.5014 152.829 14.7599 152.613 15.0753C152.389 15.4262 152.278 15.8384 152.295 16.2554V20.2301L151.014 20.225Z" fill="#3D3759"/>
</g>
</svg>
