<svg width="158" height="30" viewBox="0 0 158 30" fill="none" xmlns="http://www.w3.org/2000/svg">
<path d="M9.50585 30C11.2907 30 12.7376 28.5375 12.7376 26.7333C12.7376 24.9291 11.2907 23.4665 9.50585 23.4665C7.72099 23.4665 6.27407 24.9291 6.27407 26.7333C6.27407 28.5375 7.72099 30 9.50585 30Z" fill="#64AF4B"/>
<path d="M6.68399 6.18856L6.34805 8.7354C6.33257 8.85552 6.36207 8.97715 6.43075 9.07641C6.49943 9.17568 6.60233 9.24541 6.71926 9.27193L13.8614 10.8951C13.9989 10.9279 14.1418 10.9297 14.2799 10.9004C14.4181 10.8711 14.5482 10.8113 14.661 10.7253L20.5736 6.1563C20.6683 6.08381 20.7329 5.97832 20.755 5.86034C20.777 5.74235 20.7549 5.6203 20.6928 5.5179L19.3759 3.32422C19.315 3.22258 19.2192 3.14708 19.1068 3.11203C18.9944 3.07698 18.8733 3.08482 18.7662 3.13406L13.6481 5.48564C13.4163 5.59247 13.1654 5.65025 12.9107 5.65543L7.15095 5.77428C7.03729 5.77659 6.92808 5.81943 6.84264 5.89524C6.75719 5.97105 6.701 6.07494 6.68399 6.18856Z" fill="#64AF4B"/>
<path d="M64.3045 2.83314V0.0689789C61.9529 -0.168726 59.2654 1.80592 59.1108 4.3137C58.8404 8.68577 58.832 13.0833 58.9429 17.4656C59.0285 20.9445 57.3572 23.5966 54.1657 24.3811C51.0465 25.1468 47.5712 22.8631 47.079 19.6881C46.8472 18.1923 46.9312 16.6047 46.4676 15.1938C45.0583 10.9066 42.2347 8.07283 37.7078 7.14918C34.9699 6.59057 32.3932 6.97939 30.003 8.35808C28.8507 9.02195 27.8462 9.94561 26.7275 10.7895C24.8513 8.73671 22.6156 7.45989 20.0322 7.0541L14.7763 11.1171C14.6633 11.2032 14.5329 11.2631 14.3945 11.2924C14.256 11.3218 14.1128 11.3199 13.9751 11.2869L9.82451 10.3446C8.40846 11.7797 7.4692 13.6245 7.13696 15.6233C6.85899 17.4249 6.71748 19.2452 6.71367 21.0685H12.1207C12.1392 20.2195 12.1728 19.3706 12.2332 18.5301C12.3458 16.9545 13.0429 15.0427 14.1397 13.99C17.3984 10.8591 22.6357 12.3549 23.7847 16.7847C24.381 19.0802 24.0467 21.6288 24.0803 24.0653C24.1307 27.5765 26.4604 30.1199 29.5394 29.8958C29.5394 26.1604 29.3966 22.4013 29.6099 18.6694C29.6922 17.2092 30.2684 15.5554 31.1553 14.4144C32.7796 12.3226 35.1748 11.8761 37.6373 12.7709C39.7941 13.557 41.2117 15.2923 41.3528 17.5471C41.6048 21.5422 42.7134 24.9448 45.9099 27.5646C49.4088 30.4408 54.8124 30.7023 58.4809 28.5392C62.3443 26.2521 64.318 22.7494 64.3096 18.1702C64.2995 13.0686 64.2978 7.95624 64.3045 2.83314Z" fill="#3D3759"/>
<path d="M47.4785 14.5255C47.4974 14.6122 47.54 14.6918 47.6015 14.7551C47.6631 14.8184 47.741 14.8629 47.8264 14.8834C47.9118 14.904 48.0012 14.8998 48.0844 14.8713C48.1676 14.8429 48.2411 14.7913 48.2966 14.7225C50.5911 11.9074 53.591 11.7665 57.0025 14.4288C57.0823 14.4909 57.1777 14.5293 57.2779 14.5394C57.3781 14.5496 57.4791 14.5312 57.5695 14.4863C57.6599 14.4414 57.7361 14.3718 57.7893 14.2854C57.8426 14.1991 57.8709 14.0993 57.871 13.9975V8.22468C53.9791 6.26871 47.9606 6.8409 45.137 10.218C46.5715 11.4676 47.0771 12.6833 47.4785 14.5255Z" fill="#3D3759"/>
<path d="M0 5.60982L11.7009 0.300527C11.9532 0.186126 12.2257 0.124335 12.5022 0.118852L25.478 0L14.0189 4.92388C13.6426 5.08997 13.2384 5.18216 12.828 5.19554L1.65116 5.55379L0 5.60982Z" fill="#64AF4B"/>
<path d="M1.71997 5.53162C1.71997 5.53162 2.80843 5.43824 2.93945 6.02911C3.07046 6.61997 3.95904 10.5166 3.95904 10.5166C3.95904 10.5166 4.08502 10.7747 3.62309 11.4624C3.62309 11.4624 3.52567 11.7136 3.92712 11.8885C3.92712 11.8885 4.06318 12.1347 3.82802 12.7578C3.82802 12.7578 3.7138 14.9651 4.45623 14.6866C4.45623 14.6866 5.30785 14.1773 5.49262 14.5169C5.52789 14.4948 5.97974 14.4438 5.68747 13.6679C5.68747 13.6679 5.67739 13.0838 5.11132 12.4234C4.97953 12.2557 4.88197 12.0633 4.8243 11.8572C4.76663 11.6511 4.75001 11.4356 4.77538 11.2229C4.77538 11.2229 4.79218 10.7985 4.23955 10.644C4.23955 10.644 3.47528 7.67096 3.28379 5.84064C3.28379 5.84064 3.1998 5.26845 4.83417 5.41617L1.71997 5.53162Z" fill="#64AF4B"/>
<path d="M76.9367 20.2254V12.7547C76.9367 12.7547 76.4613 13.5408 73.8679 17.1098H73.579C70.972 13.5272 70.4916 12.77 70.4916 12.7547V20.2254H69.1663V10.5474H70.448L73.7469 15.1929L77.0173 10.5474H78.2839V20.2254H76.9367Z" fill="#3D3759"/>
<path d="M86.5592 13.1484V20.0945H85.249V19.2778C84.9305 19.6279 84.5425 19.9063 84.1104 20.0947C83.6783 20.2831 83.2118 20.3773 82.7412 20.3713C82.2691 20.3759 81.8013 20.2811 81.3675 20.0928C80.9337 19.9046 80.5434 19.627 80.2216 19.2778C79.5416 18.565 79.1684 17.6091 79.1836 16.6189C79.1742 16.1297 79.2612 15.6434 79.4394 15.1884C79.6176 14.7334 79.8835 14.3188 80.2216 13.9685C80.5435 13.6196 80.9338 13.3423 81.3676 13.1543C81.8014 12.9663 82.2692 12.8718 82.7412 12.8768C83.2108 12.8678 83.6769 12.9592 84.1091 13.145C84.5412 13.3308 84.9297 13.6068 85.249 13.9549V13.4303L86.5592 13.1484ZM84.4999 18.4493C84.9544 17.9517 85.2017 17.2961 85.1902 16.6189C85.2033 15.9445 84.9556 15.2915 84.4999 14.7988C84.2898 14.5606 84.0323 14.3701 83.7443 14.2396C83.4563 14.1091 83.1442 14.0416 82.8286 14.0416C82.5129 14.0416 82.2008 14.1091 81.9128 14.2396C81.6248 14.3701 81.3673 14.5606 81.1572 14.7988C80.701 15.2914 80.4528 15.9443 80.4652 16.6189C80.4531 17.2981 80.701 17.9557 81.1572 18.4543C81.3698 18.6883 81.6281 18.875 81.9158 19.0028C82.2035 19.1306 82.5143 19.1965 82.8286 19.1965C83.1428 19.1965 83.4536 19.1306 83.7413 19.0028C84.029 18.875 84.2873 18.6883 84.4999 18.4543V18.4493Z" fill="#3D3759"/>
<path d="M88.375 20.2251V12.9887H89.6281V14.4438C89.8061 13.9769 90.1208 13.5762 90.5303 13.2952C90.9398 13.0143 91.4244 12.8664 91.9193 12.8715C92.452 12.8516 92.977 13.0045 93.4176 13.3079L92.7692 14.4726C92.427 14.2051 92.0058 14.0616 91.5732 14.0651C90.6225 14.0651 89.8935 15.0703 89.7726 15.6815C89.6854 16.2059 89.6466 16.7374 89.6567 17.269V20.2251H88.375Z" fill="#3D3759"/>
<path d="M99.8996 19.424C100.223 19.5725 100.51 19.7917 100.74 20.0658C100.921 20.2923 101.062 20.5484 101.158 20.8231C101.222 21.0263 101.265 21.2357 101.287 21.4479L101.302 21.7111H99.3235C99.1555 21.2594 98.8918 20.9674 98.5609 20.8367C98.3283 20.7369 98.0778 20.6872 97.8252 20.6906C97.6414 20.6958 97.4583 20.7157 97.2776 20.7501C96.9605 20.8043 96.6517 20.8996 96.3588 21.0336C95.9993 21.1932 95.7104 21.3392 95.4669 21.47L95.1208 21.6737L94.1835 20.7569L95.3594 18.2813C95.2435 18.2372 95.1578 18.1931 95.0704 18.1642C94.9411 18.0912 94.8403 18.0334 94.7681 17.9944L94.6673 17.8925C94.136 17.3386 93.8411 16.596 93.8459 15.8245C93.8394 15.4388 93.919 15.0566 94.0786 14.7062C94.2383 14.3559 94.4739 14.0463 94.7681 13.8006C95.3728 13.2624 96.2093 13.0009 97.2457 13.0009H101.23V14.1504C100.351 14.1504 99.8039 14.1351 99.5872 14.1215C99.8405 14.3165 100.046 14.5676 100.189 14.8554C100.331 15.1432 100.406 15.4602 100.409 15.782C100.412 16.1699 100.333 16.554 100.176 16.9082C100.02 17.2624 99.7895 17.5784 99.5015 17.8348C98.8834 18.4013 98.0731 18.7053 97.239 18.6837C97.1684 18.6837 97.0811 18.6702 96.9803 18.6702H96.8795L96.174 19.8774L96.4193 19.7178C96.6531 19.5763 96.9052 19.4683 97.1684 19.3969C97.6059 19.2669 98.0569 19.1888 98.5122 19.1642C98.9873 19.1545 99.4594 19.2429 99.8996 19.424ZM95.6869 14.619C95.3918 14.943 95.2276 15.3671 95.2267 15.8075C95.2267 16.8704 95.875 17.4239 97.1567 17.4681C98.3812 17.4681 99.0144 16.8993 99.043 15.7702C99.043 14.6767 98.4092 14.1232 97.1415 14.1096C96.4713 14.1096 95.996 14.2845 95.6869 14.619Z" fill="#3D3759"/>
<path d="M102.406 10.5417C102.406 10.5417 104.494 10.4975 105.69 10.4975C106.814 10.4975 107.808 10.6571 108.545 10.9933C110.015 11.6487 110.994 13.0308 110.994 15.3026C110.994 17.2976 109.958 19.133 108.127 19.8308C107.538 20.0499 106.427 20.2247 105.304 20.2247H102.406V10.5417ZM105.46 18.9292C106.078 18.9292 107.173 18.8274 107.677 18.5795C108.888 18.0701 109.622 16.8612 109.622 15.3026C109.622 12.8712 108.139 11.7642 105.819 11.7642C105.215 11.7642 104.365 11.793 103.731 11.8083V18.9292H105.46Z" fill="#3D3759"/>
<path d="M119.035 13.1484V20.0945H117.723V19.2778C117.405 19.6279 117.017 19.9062 116.585 20.0946C116.154 20.283 115.687 20.3773 115.217 20.3713C114.745 20.3755 114.277 20.2805 113.844 20.0923C113.41 19.904 113.019 19.6267 112.697 19.2778C112.017 18.5651 111.643 17.6094 111.656 16.6189C111.647 16.1298 111.734 15.6437 111.911 15.1888C112.089 14.7338 112.355 14.3191 112.692 13.9685C113.015 13.6199 113.405 13.3428 113.839 13.1549C114.272 12.9669 114.74 12.8722 115.212 12.8768C115.681 12.8679 116.147 12.9593 116.579 13.1451C117.011 13.3309 117.399 13.6069 117.718 13.9549V13.4303L119.035 13.1484ZM116.974 18.4493C117.429 17.9518 117.675 17.296 117.663 16.6189C117.676 15.9442 117.427 15.291 116.971 14.7988C116.761 14.5607 116.503 14.3701 116.215 14.2396C115.928 14.1092 115.616 14.0417 115.3 14.0417C114.985 14.0417 114.673 14.1092 114.385 14.2396C114.097 14.3701 113.84 14.5607 113.63 14.7988C113.173 15.291 112.924 15.9442 112.938 16.6189C112.925 17.2982 113.173 17.9561 113.63 18.4543C113.842 18.6882 114.1 18.875 114.388 19.0027C114.675 19.1305 114.986 19.1964 115.3 19.1964C115.614 19.1964 115.925 19.1305 116.212 19.0027C116.5 18.875 116.758 18.6882 116.971 18.4543L116.974 18.4493Z" fill="#3D3759"/>
<path d="M120.847 20.2251V12.9887H122.1V14.4438C122.278 13.9771 122.592 13.5765 123.002 13.2955C123.411 13.0145 123.895 12.8666 124.39 12.8715C124.923 12.8514 125.448 13.0043 125.888 13.3079L125.24 14.4727C124.898 14.2052 124.477 14.0617 124.045 14.0652C123.095 14.0652 122.366 15.0703 122.245 15.6816C122.158 16.206 122.119 16.7374 122.129 17.2691V20.2251H120.847Z" fill="#3D3759"/>
<path d="M126.537 18.4632C127.29 18.9368 128.158 19.189 129.045 19.1916C130.068 19.1916 130.543 18.8521 130.543 18.1576C130.543 17.6771 130.169 17.5175 129.319 17.2119L128.425 16.891C127.374 16.4971 126.745 15.9436 126.745 14.8807C126.745 13.6141 127.639 12.8432 129.396 12.8432C130.142 12.8455 130.882 12.9835 131.58 13.2507V14.5615C130.915 14.218 130.179 14.0382 129.433 14.0368C128.553 14.0368 128.064 14.3136 128.064 14.969C128.064 15.3765 128.294 15.5514 129.087 15.8417L129.908 16.1626C131.234 16.672 131.882 17.0947 131.882 18.2153C131.882 19.6721 130.758 20.3717 129.043 20.3717C128.18 20.3814 127.326 20.1866 126.551 19.8029L126.537 18.4632Z" fill="#3D3759"/>
<path d="M138.812 20.2257V16.1185C138.812 15.6092 138.753 15.0421 138.552 14.7076C138.278 14.2118 137.761 14.0284 137.126 14.0284C136.464 14.0284 135.643 14.4954 135.196 15.1643C134.975 15.5377 134.865 15.9673 134.878 16.4021V20.2325H133.597V9.48829H134.865V14.3086C135.312 13.5072 136.333 12.8518 137.5 12.8518C138.624 12.8518 139.373 13.2457 139.776 14.0166C140.022 14.4682 140.079 15.2255 140.079 15.7654V20.2206L138.812 20.2257Z" fill="#3D3759"/>
<path d="M149.198 13.1484V20.0945H147.888V19.2778C147.57 19.6279 147.182 19.9063 146.749 20.0947C146.317 20.2831 145.851 20.3773 145.38 20.3713C144.908 20.3759 144.44 20.2811 144.007 20.0928C143.573 19.9046 143.182 19.627 142.861 19.2778C142.181 18.565 141.807 17.6091 141.823 16.6189C141.813 16.1297 141.9 15.6434 142.078 15.1884C142.257 14.7334 142.523 14.3188 142.861 13.9685C143.183 13.6196 143.573 13.3423 144.007 13.1543C144.44 12.9663 144.908 12.8718 145.38 12.8768C145.85 12.8678 146.316 12.9592 146.748 13.145C147.18 13.3308 147.569 13.6068 147.888 13.9549V13.4303L149.198 13.1484ZM147.139 18.4493C147.593 17.9517 147.841 17.2961 147.829 16.6189C147.842 15.9445 147.595 15.2915 147.139 14.7988C146.929 14.5606 146.671 14.3701 146.383 14.2396C146.095 14.1091 145.783 14.0416 145.468 14.0416C145.152 14.0416 144.84 14.1091 144.552 14.2396C144.264 14.3701 144.006 14.5606 143.796 14.7988C143.34 15.2914 143.092 15.9443 143.104 16.6189C143.092 17.2981 143.34 17.9557 143.796 18.4543C144.009 18.6883 144.267 18.875 144.555 19.0028C144.843 19.1306 145.153 19.1965 145.468 19.1965C145.782 19.1965 146.093 19.1306 146.38 19.0028C146.668 18.875 146.926 18.6883 147.139 18.4543V18.4493Z" fill="#3D3759"/>
<path d="M151.014 20.2251V13.0176H152.267V14.3131C152.685 13.5117 153.75 12.8563 154.946 12.8563C156.028 12.8563 156.794 13.2502 157.193 14.021C157.439 14.4727 157.496 15.2299 157.496 15.7698V20.2251H156.229V16.1179C156.229 15.6085 156.17 15.055 155.969 14.7206C155.695 14.2401 155.178 14.0414 154.543 14.0414C154.163 14.0456 153.789 14.1417 153.454 14.3216C153.118 14.5015 152.829 14.7599 152.613 15.0754C152.389 15.4263 152.278 15.8384 152.295 16.2554V20.2302L151.014 20.2251Z" fill="#3D3759"/>
</svg>
